<?xml version="1.0" encoding="UTF-8"?>
<svg xmlns="http://www.w3.org/2000/svg" width="1600mm" height="1100mm" viewBox="0 0 1600 1100">
<defs>
  <marker id="arr" markerWidth="8" markerHeight="8" refX="4" refY="4" orient="auto">
    <path d="M0,0 L8,4 L0,8 Z" fill="#333"/>
  </marker>
  <marker id="arrGold" markerWidth="8" markerHeight="8" refX="4" refY="4" orient="auto">
    <path d="M0,0 L8,4 L0,8 Z" fill="#c78020"/>
  </marker>
</defs>
<style>
  .border{fill:#fff;stroke:#111;stroke-width:1.5}
  .frame{fill:none;stroke:#111;stroke-width:3}
  .thin{fill:none;stroke:#666;stroke-width:1.2}
  .dash{fill:none;stroke:#777;stroke-width:1;stroke-dasharray:10 7}
  .dim{fill:none;stroke:#333;stroke-width:1.1;marker-start:url(#arr);marker-end:url(#arr)}
  .arrow{fill:none;stroke:#333;stroke-width:1.2;marker-end:url(#arr)}
  .mirror{fill:rgba(80,160,220,.18);stroke:#1476b8;stroke-width:2}
  .semi{fill:rgba(100,200,255,.10);stroke:#1476b8;stroke-width:2;stroke-dasharray:12 8}
  .mdf{fill:rgba(201,143,61,.18);stroke:#9b6118;stroke-width:2}
  .led{fill:none;stroke:#f29b22;stroke-width:4}
  .service{fill:rgba(80,180,90,.12);stroke:#2c8b3a;stroke-width:2}
  .warn{fill:#fff3cd;stroke:#b78300;stroke-width:1.5}
  text{font-family:Arial,sans-serif;fill:#111;letter-spacing:0}
  .title{font-size:26px;font-weight:700}
  .h{font-size:18px;font-weight:700}
  .t{font-size:15px}
  .s{font-size:12px}
  .stamp{font-size:11px}
</style>
<rect class="border" x="10" y="10" width="1580" height="1080"/>
<text class="title" x="32" y="44">01 Общий вид и компоновка</text>
<rect class="warn" x="32" y="62" width="1536" height="34"/>
<text class="t" x="44" y="84">Схема для конструктора: показывает замысел, слои и требования. Не является финальным раскроем/КД.</text>

    <rect class="frame" x="95" y="120" width="894.6" height="777" rx="60.9"/>
    <rect class="led" x="113.9" y="138.9" width="856.8" height="739.1999999999999" rx="47.04"/>
    <rect class="thin" x="174.8" y="191.39999999999998" width="735" height="634.1999999999999" rx="38.64"/>
    <rect class="mirror" x="286.1" y="283.79999999999995" width="512.4" height="436.8" rx="26.04"/>
    <line class="dim" x1="95" y1="939" x2="989.6" y2="939"/><text class="s" x="510.29999999999995" y="931">2130</text>
    <line class="dim" x1="59.300000000000004" y1="120" x2="59.300000000000004" y2="897"/><text class="s" x="67.30000000000001" y="508.5">1850</text>
    <line class="dim" x1="286.1" y1="271.2" x2="798.5" y2="271.2"/><text class="s" x="510.29999999999995" y="263.2">1220 центральная зона</text>
    <line class="dim" x1="811.1" y1="283.79999999999995" x2="811.1" y2="720.6"/><text class="s" x="819.1" y="502.2">1040</text>
    <g transform="translate(405.8 271.2) rotate(-22)">
    <rect class="mdf" x="-58" y="-88" width="116" height="176" rx="8"/>
    <text class="s" x="-42" y="-54">10</text>
  </g>
    <g transform="translate(445.7 258.6) rotate(-14)">
    <rect class="mdf" x="-58" y="-88" width="116" height="176" rx="8"/>
    <text class="s" x="-42" y="-54">J</text>
  </g>
    <g transform="translate(485.59999999999997 248.1) rotate(-7)">
    <rect class="mdf" x="-58" y="-88" width="116" height="176" rx="8"/>
    <text class="s" x="-42" y="-54">J</text>
  </g>
    <g transform="translate(527.5999999999999 239.7) rotate(0)">
    <rect class="mdf" x="-58" y="-88" width="116" height="176" rx="8"/>
    <text class="s" x="-42" y="-54">Q</text>
  </g>
    <g transform="translate(571.7 246) rotate(8)">
    <rect class="mdf" x="-58" y="-88" width="116" height="176" rx="8"/>
    <text class="s" x="-42" y="-54">K</text>
  </g>
    <g transform="translate(617.9 260.7) rotate(18)">
    <rect class="mdf" x="-58" y="-88" width="116" height="176" rx="8"/>
    <text class="s" x="-42" y="-54">A</text>
  </g>
    <g><circle class="mdf" cx="242" cy="273.29999999999995" r="31"/><circle class="thin" cx="242" cy="273.29999999999995" r="17.05"/><text class="s" x="278" y="277.29999999999995">C1</text></g>
    <g><circle class="mdf" cx="273.5" cy="393" r="31"/><circle class="thin" cx="273.5" cy="393" r="17.05"/><text class="s" x="309.5" y="397">C2</text></g>
    <g><circle class="mdf" cx="242" cy="531.5999999999999" r="31"/><circle class="thin" cx="242" cy="531.5999999999999" r="17.05"/><text class="s" x="278" y="535.5999999999999">C3</text></g>
    <g><circle class="mdf" cx="248.29999999999998" cy="687" r="31"/><circle class="thin" cx="248.29999999999998" cy="687" r="17.05"/><text class="s" x="284.29999999999995" y="691">C4</text></g>
    <g><circle class="mdf" cx="842.6" cy="273.29999999999995" r="31"/><circle class="thin" cx="842.6" cy="273.29999999999995" r="17.05"/><text class="s" x="878.6" y="277.29999999999995">C5</text></g>
    <g><circle class="mdf" cx="811.1" cy="393" r="31"/><circle class="thin" cx="811.1" cy="393" r="17.05"/><text class="s" x="847.1" y="397">C6</text></g>
    <g><circle class="mdf" cx="842.6" cy="531.5999999999999" r="31"/><circle class="thin" cx="842.6" cy="531.5999999999999" r="17.05"/><text class="s" x="878.6" y="535.5999999999999">C7</text></g>
    <g><circle class="mdf" cx="836.3" cy="687" r="31"/><circle class="thin" cx="836.3" cy="687" r="17.05"/><text class="s" x="872.3" y="691">C8</text></g>
    <text class="h" x="1080" y="165">Что конструктор должен получить из листа</text>
    <text class="t" x="1080" y="205">1. Общий габарит и пропорции фасада.</text>
    <text class="t" x="1080" y="232">2. Где центральный зеркальный тоннель.</text>
    <text class="t" x="1080" y="259">3. Что реальные объекты ставятся один раз.</text>
    <text class="t" x="1080" y="286">4. Какие зоны нужны для LED-контуров.</text>
    <text class="t" x="1080" y="313">5. Что нужен отдельный рабочий разрез и узлы крепления.</text>
    <rect class="warn" x="1080" y="370" width="410" height="130"/>
    <text class="t" x="1100" y="400">Не резать по этому листу.</text>
    <text class="s" x="1100" y="428">Это карта компоновки. Рабочий чертеж</text>
    <text class="s" x="1100" y="448">должен уточнить пазы, толщины,</text>
    <text class="s" x="1100" y="468">крепеж, доступ и фактические размеры зеркал.</text>
<rect x="1260" y="1014" width="310" height="58" fill="none" stroke="#111"/>
<text class="stamp" x="1272" y="1036">Casino infinity mirror</text>
<text class="stamp" x="1272" y="1054">Габарит 2130 x 1850 x 235 мм</text>
<text class="stamp" x="1272" y="1072">Лист для конструктора</text>
</svg>