<?xml version="1.0" encoding="UTF-8"?>
<svg xmlns="http://www.w3.org/2000/svg" width="1800mm" height="1550mm" viewBox="0 0 1800 1550">
<defs>
  <marker id="arrow" markerWidth="8" markerHeight="8" refX="4" refY="4" orient="auto">
    <path d="M0,0 L8,4 L0,8 Z" fill="#f7c46a"/>
  </marker>
  <radialGradient id="chipRed" cx="50%" cy="45%" r="60%">
    <stop offset="0%" stop-color="#ffcc79"/>
    <stop offset="40%" stop-color="#aa1610"/>
    <stop offset="100%" stop-color="#260604"/>
  </radialGradient>
  <radialGradient id="chipBlack" cx="50%" cy="45%" r="60%">
    <stop offset="0%" stop-color="#ffd890"/>
    <stop offset="42%" stop-color="#111"/>
    <stop offset="100%" stop-color="#040403"/>
  </radialGradient>
  <filter id="glow"><feGaussianBlur stdDeviation="4" result="b"/><feMerge><feMergeNode in="b"/><feMergeNode in="SourceGraphic"/></feMerge></filter>
</defs>
<style>
  .bg{fill:#080705}
  .frame{fill:none;stroke:#d58a25;stroke-width:5}
  .gold{fill:none;stroke:#d79b38;stroke-width:3}
  .thinGold{fill:none;stroke:#d79b38;stroke-width:1.4}
  .dim{fill:none;stroke:#f7c46a;stroke-width:1.2;marker-start:url(#arrow);marker-end:url(#arrow)}
  .guide{fill:none;stroke:rgba(255,215,120,.35);stroke-width:.8;stroke-dasharray:12 8}
  .label{font-family:Arial,sans-serif;font-size:24px;fill:#f7e7bd}
  .small{font-family:Arial,sans-serif;font-size:16px;fill:#f7e7bd}
  .tiny{font-family:Arial,sans-serif;font-size:12px;fill:#f7e7bd}
  .card{fill:#c69043;stroke:#2b1708;stroke-width:2}
  .cardLine{fill:none;stroke:#2b1708;stroke-width:2}
  .mirror{fill:rgba(30,90,125,.28);stroke:#53a9df;stroke-width:2}
  .mdf{fill:rgba(205,143,58,.16);stroke:#8f5b14;stroke-width:2}
  .cut{fill:none;stroke:#111;stroke-width:1.4}
  .engrave{fill:none;stroke:#1266a8;stroke-width:1;stroke-dasharray:9 6}
  text{letter-spacing:0}
</style>
<rect class="bg" x="0" y="0" width="1800" height="1550"/>
<text class="label" x="32" y="42">01 Фасад композиции по референсу</text>

    <g>
      <rect class="frame" x="135" y="95" width="1533.6" height="1332" rx="104.39999999999999"/>
      <rect class="gold" x="167.4" y="127.4" width="1468.8" height="1267.2" rx="80.64"/>
      <rect class="thinGold" x="271.79999999999995" y="217.39999999999998" width="1260" height="1087.2" rx="66.24"/>
      <rect class="mirror" x="462.59999999999997" y="375.8" width="878.4" height="748.8" rx="44.64"/>
      <circle cx="189" cy="134.6" r="5" fill="#ffb33e" filter="url(#glow)"/><circle cx="189" cy="1387.3999999999999" r="5" fill="#ffb33e" filter="url(#glow)"/><circle cx="230.9294117647059" cy="134.6" r="5" fill="#ffb33e" filter="url(#glow)"/><circle cx="230.9294117647059" cy="1387.3999999999999" r="5" fill="#ffb33e" filter="url(#glow)"/><circle cx="272.8588235294118" cy="134.6" r="5" fill="#ffb33e" filter="url(#glow)"/><circle cx="272.8588235294118" cy="1387.3999999999999" r="5" fill="#ffb33e" filter="url(#glow)"/><circle cx="314.7882352941176" cy="134.6" r="5" fill="#ffb33e" filter="url(#glow)"/><circle cx="314.7882352941176" cy="1387.3999999999999" r="5" fill="#ffb33e" filter="url(#glow)"/><circle cx="356.71764705882356" cy="134.6" r="5" fill="#ffb33e" filter="url(#glow)"/><circle cx="356.71764705882356" cy="1387.3999999999999" r="5" fill="#ffb33e" filter="url(#glow)"/><circle cx="398.6470588235294" cy="134.6" r="5" fill="#ffb33e" filter="url(#glow)"/><circle cx="398.6470588235294" cy="1387.3999999999999" r="5" fill="#ffb33e" filter="url(#glow)"/><circle cx="440.5764705882353" cy="134.6" r="5" fill="#ffb33e" filter="url(#glow)"/><circle cx="440.5764705882353" cy="1387.3999999999999" r="5" fill="#ffb33e" filter="url(#glow)"/><circle cx="482.50588235294117" cy="134.6" r="5" fill="#ffb33e" filter="url(#glow)"/><circle cx="482.50588235294117" cy="1387.3999999999999" r="5" fill="#ffb33e" filter="url(#glow)"/><circle cx="524.4352941176471" cy="134.6" r="5" fill="#ffb33e" filter="url(#glow)"/><circle cx="524.4352941176471" cy="1387.3999999999999" r="5" fill="#ffb33e" filter="url(#glow)"/><circle cx="566.364705882353" cy="134.6" r="5" fill="#ffb33e" filter="url(#glow)"/><circle cx="566.364705882353" cy="1387.3999999999999" r="5" fill="#ffb33e" filter="url(#glow)"/><circle cx="608.2941176470588" cy="134.6" r="5" fill="#ffb33e" filter="url(#glow)"/><circle cx="608.2941176470588" cy="1387.3999999999999" r="5" fill="#ffb33e" filter="url(#glow)"/><circle cx="650.2235294117647" cy="134.6" r="5" fill="#ffb33e" filter="url(#glow)"/><circle cx="650.2235294117647" cy="1387.3999999999999" r="5" fill="#ffb33e" filter="url(#glow)"/><circle cx="692.1529411764706" cy="134.6" r="5" fill="#ffb33e" filter="url(#glow)"/><circle cx="692.1529411764706" cy="1387.3999999999999" r="5" fill="#ffb33e" filter="url(#glow)"/><circle cx="734.0823529411764" cy="134.6" r="5" fill="#ffb33e" filter="url(#glow)"/><circle cx="734.0823529411764" cy="1387.3999999999999" r="5" fill="#ffb33e" filter="url(#glow)"/><circle cx="776.0117647058823" cy="134.6" r="5" fill="#ffb33e" filter="url(#glow)"/><circle cx="776.0117647058823" cy="1387.3999999999999" r="5" fill="#ffb33e" filter="url(#glow)"/><circle cx="817.9411764705882" cy="134.6" r="5" fill="#ffb33e" filter="url(#glow)"/><circle cx="817.9411764705882" cy="1387.3999999999999" r="5" fill="#ffb33e" filter="url(#glow)"/><circle cx="859.8705882352941" cy="134.6" r="5" fill="#ffb33e" filter="url(#glow)"/><circle cx="859.8705882352941" cy="1387.3999999999999" r="5" fill="#ffb33e" filter="url(#glow)"/><circle cx="901.8" cy="134.6" r="5" fill="#ffb33e" filter="url(#glow)"/><circle cx="901.8" cy="1387.3999999999999" r="5" fill="#ffb33e" filter="url(#glow)"/><circle cx="943.7294117647059" cy="134.6" r="5" fill="#ffb33e" filter="url(#glow)"/><circle cx="943.7294117647059" cy="1387.3999999999999" r="5" fill="#ffb33e" filter="url(#glow)"/><circle cx="985.6588235294117" cy="134.6" r="5" fill="#ffb33e" filter="url(#glow)"/><circle cx="985.6588235294117" cy="1387.3999999999999" r="5" fill="#ffb33e" filter="url(#glow)"/><circle cx="1027.5882352941176" cy="134.6" r="5" fill="#ffb33e" filter="url(#glow)"/><circle cx="1027.5882352941176" cy="1387.3999999999999" r="5" fill="#ffb33e" filter="url(#glow)"/><circle cx="1069.5176470588235" cy="134.6" r="5" fill="#ffb33e" filter="url(#glow)"/><circle cx="1069.5176470588235" cy="1387.3999999999999" r="5" fill="#ffb33e" filter="url(#glow)"/><circle cx="1111.4470588235295" cy="134.6" r="5" fill="#ffb33e" filter="url(#glow)"/><circle cx="1111.4470588235295" cy="1387.3999999999999" r="5" fill="#ffb33e" filter="url(#glow)"/><circle cx="1153.3764705882354" cy="134.6" r="5" fill="#ffb33e" filter="url(#glow)"/><circle cx="1153.3764705882354" cy="1387.3999999999999" r="5" fill="#ffb33e" filter="url(#glow)"/><circle cx="1195.3058823529411" cy="134.6" r="5" fill="#ffb33e" filter="url(#glow)"/><circle cx="1195.3058823529411" cy="1387.3999999999999" r="5" fill="#ffb33e" filter="url(#glow)"/><circle cx="1237.2352941176468" cy="134.6" r="5" fill="#ffb33e" filter="url(#glow)"/><circle cx="1237.2352941176468" cy="1387.3999999999999" r="5" fill="#ffb33e" filter="url(#glow)"/><circle cx="1279.1647058823528" cy="134.6" r="5" fill="#ffb33e" filter="url(#glow)"/><circle cx="1279.1647058823528" cy="1387.3999999999999" r="5" fill="#ffb33e" filter="url(#glow)"/><circle cx="1321.0941176470587" cy="134.6" r="5" fill="#ffb33e" filter="url(#glow)"/><circle cx="1321.0941176470587" cy="1387.3999999999999" r="5" fill="#ffb33e" filter="url(#glow)"/><circle cx="1363.0235294117647" cy="134.6" r="5" fill="#ffb33e" filter="url(#glow)"/><circle cx="1363.0235294117647" cy="1387.3999999999999" r="5" fill="#ffb33e" filter="url(#glow)"/><circle cx="1404.9529411764704" cy="134.6" r="5" fill="#ffb33e" filter="url(#glow)"/><circle cx="1404.9529411764704" cy="1387.3999999999999" r="5" fill="#ffb33e" filter="url(#glow)"/><circle cx="1446.8823529411764" cy="134.6" r="5" fill="#ffb33e" filter="url(#glow)"/><circle cx="1446.8823529411764" cy="1387.3999999999999" r="5" fill="#ffb33e" filter="url(#glow)"/><circle cx="1488.8117647058823" cy="134.6" r="5" fill="#ffb33e" filter="url(#glow)"/><circle cx="1488.8117647058823" cy="1387.3999999999999" r="5" fill="#ffb33e" filter="url(#glow)"/><circle cx="1530.7411764705882" cy="134.6" r="5" fill="#ffb33e" filter="url(#glow)"/><circle cx="1530.7411764705882" cy="1387.3999999999999" r="5" fill="#ffb33e" filter="url(#glow)"/><circle cx="1572.670588235294" cy="134.6" r="5" fill="#ffb33e" filter="url(#glow)"/><circle cx="1572.670588235294" cy="1387.3999999999999" r="5" fill="#ffb33e" filter="url(#glow)"/><circle cx="1614.6" cy="134.6" r="5" fill="#ffb33e" filter="url(#glow)"/><circle cx="1614.6" cy="1387.3999999999999" r="5" fill="#ffb33e" filter="url(#glow)"/><circle cx="174.6" cy="163.39999999999998" r="5" fill="#ffb33e" filter="url(#glow)"/><circle cx="1629" cy="163.39999999999998" r="5" fill="#ffb33e" filter="url(#glow)"/><circle cx="174.6" cy="209.36923076923074" r="5" fill="#ffb33e" filter="url(#glow)"/><circle cx="1629" cy="209.36923076923074" r="5" fill="#ffb33e" filter="url(#glow)"/><circle cx="174.6" cy="255.33846153846153" r="5" fill="#ffb33e" filter="url(#glow)"/><circle cx="1629" cy="255.33846153846153" r="5" fill="#ffb33e" filter="url(#glow)"/><circle cx="174.6" cy="301.30769230769226" r="5" fill="#ffb33e" filter="url(#glow)"/><circle cx="1629" cy="301.30769230769226" r="5" fill="#ffb33e" filter="url(#glow)"/><circle cx="174.6" cy="347.276923076923" r="5" fill="#ffb33e" filter="url(#glow)"/><circle cx="1629" cy="347.276923076923" r="5" fill="#ffb33e" filter="url(#glow)"/><circle cx="174.6" cy="393.24615384615385" r="5" fill="#ffb33e" filter="url(#glow)"/><circle cx="1629" cy="393.24615384615385" r="5" fill="#ffb33e" filter="url(#glow)"/><circle cx="174.6" cy="439.2153846153846" r="5" fill="#ffb33e" filter="url(#glow)"/><circle cx="1629" cy="439.2153846153846" r="5" fill="#ffb33e" filter="url(#glow)"/><circle cx="174.6" cy="485.18461538461537" r="5" fill="#ffb33e" filter="url(#glow)"/><circle cx="1629" cy="485.18461538461537" r="5" fill="#ffb33e" filter="url(#glow)"/><circle cx="174.6" cy="531.1538461538461" r="5" fill="#ffb33e" filter="url(#glow)"/><circle cx="1629" cy="531.1538461538461" r="5" fill="#ffb33e" filter="url(#glow)"/><circle cx="174.6" cy="577.123076923077" r="5" fill="#ffb33e" filter="url(#glow)"/><circle cx="1629" cy="577.123076923077" r="5" fill="#ffb33e" filter="url(#glow)"/><circle cx="174.6" cy="623.0923076923077" r="5" fill="#ffb33e" filter="url(#glow)"/><circle cx="1629" cy="623.0923076923077" r="5" fill="#ffb33e" filter="url(#glow)"/><circle cx="174.6" cy="669.0615384615384" r="5" fill="#ffb33e" filter="url(#glow)"/><circle cx="1629" cy="669.0615384615384" r="5" fill="#ffb33e" filter="url(#glow)"/><circle cx="174.6" cy="715.0307692307692" r="5" fill="#ffb33e" filter="url(#glow)"/><circle cx="1629" cy="715.0307692307692" r="5" fill="#ffb33e" filter="url(#glow)"/><circle cx="174.6" cy="761" r="5" fill="#ffb33e" filter="url(#glow)"/><circle cx="1629" cy="761" r="5" fill="#ffb33e" filter="url(#glow)"/><circle cx="174.6" cy="806.9692307692308" r="5" fill="#ffb33e" filter="url(#glow)"/><circle cx="1629" cy="806.9692307692308" r="5" fill="#ffb33e" filter="url(#glow)"/><circle cx="174.6" cy="852.9384615384614" r="5" fill="#ffb33e" filter="url(#glow)"/><circle cx="1629" cy="852.9384615384614" r="5" fill="#ffb33e" filter="url(#glow)"/><circle cx="174.6" cy="898.9076923076922" r="5" fill="#ffb33e" filter="url(#glow)"/><circle cx="1629" cy="898.9076923076922" r="5" fill="#ffb33e" filter="url(#glow)"/><circle cx="174.6" cy="944.8769230769232" r="5" fill="#ffb33e" filter="url(#glow)"/><circle cx="1629" cy="944.8769230769232" r="5" fill="#ffb33e" filter="url(#glow)"/><circle cx="174.6" cy="990.8461538461538" r="5" fill="#ffb33e" filter="url(#glow)"/><circle cx="1629" cy="990.8461538461538" r="5" fill="#ffb33e" filter="url(#glow)"/><circle cx="174.6" cy="1036.8153846153846" r="5" fill="#ffb33e" filter="url(#glow)"/><circle cx="1629" cy="1036.8153846153846" r="5" fill="#ffb33e" filter="url(#glow)"/><circle cx="174.6" cy="1082.7846153846153" r="5" fill="#ffb33e" filter="url(#glow)"/><circle cx="1629" cy="1082.7846153846153" r="5" fill="#ffb33e" filter="url(#glow)"/><circle cx="174.6" cy="1128.753846153846" r="5" fill="#ffb33e" filter="url(#glow)"/><circle cx="1629" cy="1128.753846153846" r="5" fill="#ffb33e" filter="url(#glow)"/><circle cx="174.6" cy="1174.7230769230769" r="5" fill="#ffb33e" filter="url(#glow)"/><circle cx="1629" cy="1174.7230769230769" r="5" fill="#ffb33e" filter="url(#glow)"/><circle cx="174.6" cy="1220.6923076923076" r="5" fill="#ffb33e" filter="url(#glow)"/><circle cx="1629" cy="1220.6923076923076" r="5" fill="#ffb33e" filter="url(#glow)"/><circle cx="174.6" cy="1266.6615384615384" r="5" fill="#ffb33e" filter="url(#glow)"/><circle cx="1629" cy="1266.6615384615384" r="5" fill="#ffb33e" filter="url(#glow)"/><circle cx="174.6" cy="1312.6307692307691" r="5" fill="#ffb33e" filter="url(#glow)"/><circle cx="1629" cy="1312.6307692307691" r="5" fill="#ffb33e" filter="url(#glow)"/><circle cx="174.6" cy="1358.6" r="5" fill="#ffb33e" filter="url(#glow)"/><circle cx="1629" cy="1358.6" r="5" fill="#ffb33e" filter="url(#glow)"/>
      <path d="M-16,-5 A16,16 0 1 1 -1,-22 A16,16 0 1 1 16,-5 A16,16 0 1 1 8,20 L17,50 L-17,50 L-8,20 A16,16 0 1 1 -16,-5 Z" transform="translate(336.6 1247) scale(0.72)" fill="none" stroke="#d79b38" stroke-width="2.7777777777777777"/><path d="M0,-28 C-34,6 -13,36 0,27 C13,36 34,6 0,-28 Z M0,27 L-13,54 L13,54 Z" transform="translate(509.4 1247) scale(0.72)" fill="none" stroke="#d79b38" stroke-width="2.7777777777777777"/><path d="M0,-34 L28,0 L0,34 L-28,0 Z" transform="translate(739.8 1247) scale(0.72)" fill="none" stroke="#d79b38" stroke-width="2.7777777777777777"/><path d="M0,-28 C-34,6 -13,36 0,27 C13,36 34,6 0,-28 Z M0,27 L-13,54 L13,54 Z" transform="translate(901.8 1247) scale(0.72)" fill="none" stroke="#d79b38" stroke-width="2.7777777777777777"/><path d="M0,31 C-38,-4 -29,-34 -7,-27 C-2,-25 0,-19 0,-19 C0,-19 2,-25 7,-27 C29,-34 38,-4 0,31 Z" transform="translate(1063.8 1247) scale(0.72)" fill="none" stroke="#d79b38" stroke-width="2.7777777777777777"/><path d="M-16,-5 A16,16 0 1 1 -1,-22 A16,16 0 1 1 16,-5 A16,16 0 1 1 8,20 L17,50 L-17,50 L-8,20 A16,16 0 1 1 -16,-5 Z" transform="translate(1294.2 1247) scale(0.72)" fill="none" stroke="#d79b38" stroke-width="2.7777777777777777"/><path d="M0,-28 C-34,6 -13,36 0,27 C13,36 34,6 0,-28 Z M0,27 L-13,54 L13,54 Z" transform="translate(1467 1247) scale(0.72)" fill="none" stroke="#d79b38" stroke-width="2.7777777777777777"/><path d="M-16,-5 A16,16 0 1 1 -1,-22 A16,16 0 1 1 16,-5 A16,16 0 1 1 8,20 L17,50 L-17,50 L-8,20 A16,16 0 1 1 -16,-5 Z" transform="translate(351 278.6) scale(0.72)" fill="none" stroke="#d79b38" stroke-width="2.7777777777777777"/><path d="M0,-28 C-34,6 -13,36 0,27 C13,36 34,6 0,-28 Z M0,27 L-13,54 L13,54 Z" transform="translate(1452.6 278.6) scale(0.72)" fill="none" stroke="#d79b38" stroke-width="2.7777777777777777"/><path d="M0,-34 L28,0 L0,34 L-28,0 Z" transform="translate(523.8 275) scale(0.72)" fill="none" stroke="#d79b38" stroke-width="2.7777777777777777"/><path d="M0,31 C-38,-4 -29,-34 -7,-27 C-2,-25 0,-19 0,-19 C0,-19 2,-25 7,-27 C29,-34 38,-4 0,31 Z" transform="translate(1279.8 275) scale(0.72)" fill="none" stroke="#d79b38" stroke-width="2.7777777777777777"/>
      <g>
    <circle cx="387" cy="357.8" r="52.199999999999996" fill="url(#chipRed)" stroke="#e2aa4e" stroke-width="3"/>
    <circle cx="387" cy="357.8" r="30.275999999999996" fill="none" stroke="#f1bb61" stroke-width="2"/>
    <circle cx="387" cy="357.8" r="13.049999999999999" fill="rgba(255,210,120,.25)" stroke="#f1bb61" stroke-width="2"/>
    <circle cx="426.3" cy="349.4" r="4.959" fill="#f4c06a"/><circle cx="420.7" cy="379.7" r="4.959" fill="#f4c06a"/><circle cx="395.4" cy="397.1" r="4.959" fill="#f4c06a"/><circle cx="365.1" cy="391.5" r="4.959" fill="#f4c06a"/><circle cx="347.7" cy="366.2" r="4.959" fill="#f4c06a"/><circle cx="353.3" cy="335.9" r="4.959" fill="#f4c06a"/><circle cx="378.6" cy="318.5" r="4.959" fill="#f4c06a"/><circle cx="408.9" cy="324.1" r="4.959" fill="#f4c06a"/>
    <text class="tiny" x="449.2" y="361.8">C1</text>
  </g><g>
    <circle cx="441" cy="563" r="52.199999999999996" fill="url(#chipBlack)" stroke="#e2aa4e" stroke-width="3"/>
    <circle cx="441" cy="563" r="30.275999999999996" fill="none" stroke="#f1bb61" stroke-width="2"/>
    <circle cx="441" cy="563" r="13.049999999999999" fill="rgba(255,210,120,.25)" stroke="#f1bb61" stroke-width="2"/>
    <circle cx="480.3" cy="554.6" r="4.959" fill="#f4c06a"/><circle cx="474.7" cy="584.9" r="4.959" fill="#f4c06a"/><circle cx="449.4" cy="602.3" r="4.959" fill="#f4c06a"/><circle cx="419.1" cy="596.7" r="4.959" fill="#f4c06a"/><circle cx="401.7" cy="571.4" r="4.959" fill="#f4c06a"/><circle cx="407.3" cy="541.1" r="4.959" fill="#f4c06a"/><circle cx="432.6" cy="523.7" r="4.959" fill="#f4c06a"/><circle cx="462.9" cy="529.3" r="4.959" fill="#f4c06a"/>
    <text class="tiny" x="503.2" y="567">C2</text>
  </g><g>
    <circle cx="387" cy="800.6" r="52.199999999999996" fill="url(#chipRed)" stroke="#e2aa4e" stroke-width="3"/>
    <circle cx="387" cy="800.6" r="30.275999999999996" fill="none" stroke="#f1bb61" stroke-width="2"/>
    <circle cx="387" cy="800.6" r="13.049999999999999" fill="rgba(255,210,120,.25)" stroke="#f1bb61" stroke-width="2"/>
    <circle cx="426.3" cy="792.2" r="4.959" fill="#f4c06a"/><circle cx="420.7" cy="822.5" r="4.959" fill="#f4c06a"/><circle cx="395.4" cy="839.9" r="4.959" fill="#f4c06a"/><circle cx="365.1" cy="834.3" r="4.959" fill="#f4c06a"/><circle cx="347.7" cy="809.0" r="4.959" fill="#f4c06a"/><circle cx="353.3" cy="778.7" r="4.959" fill="#f4c06a"/><circle cx="378.6" cy="761.3" r="4.959" fill="#f4c06a"/><circle cx="408.9" cy="766.9" r="4.959" fill="#f4c06a"/>
    <text class="tiny" x="449.2" y="804.6">C3</text>
  </g><g>
    <circle cx="397.8" cy="1067" r="52.199999999999996" fill="url(#chipBlack)" stroke="#e2aa4e" stroke-width="3"/>
    <circle cx="397.8" cy="1067" r="30.275999999999996" fill="none" stroke="#f1bb61" stroke-width="2"/>
    <circle cx="397.8" cy="1067" r="13.049999999999999" fill="rgba(255,210,120,.25)" stroke="#f1bb61" stroke-width="2"/>
    <circle cx="437.1" cy="1058.6" r="4.959" fill="#f4c06a"/><circle cx="431.5" cy="1088.9" r="4.959" fill="#f4c06a"/><circle cx="406.2" cy="1106.3" r="4.959" fill="#f4c06a"/><circle cx="375.9" cy="1100.7" r="4.959" fill="#f4c06a"/><circle cx="358.5" cy="1075.4" r="4.959" fill="#f4c06a"/><circle cx="364.1" cy="1045.1" r="4.959" fill="#f4c06a"/><circle cx="389.4" cy="1027.7" r="4.959" fill="#f4c06a"/><circle cx="419.7" cy="1033.3" r="4.959" fill="#f4c06a"/>
    <text class="tiny" x="460" y="1071">C4</text>
  </g><g>
    <circle cx="1416.6" cy="357.8" r="52.199999999999996" fill="url(#chipBlack)" stroke="#e2aa4e" stroke-width="3"/>
    <circle cx="1416.6" cy="357.8" r="30.275999999999996" fill="none" stroke="#f1bb61" stroke-width="2"/>
    <circle cx="1416.6" cy="357.8" r="13.049999999999999" fill="rgba(255,210,120,.25)" stroke="#f1bb61" stroke-width="2"/>
    <circle cx="1455.9" cy="349.4" r="4.959" fill="#f4c06a"/><circle cx="1450.3" cy="379.7" r="4.959" fill="#f4c06a"/><circle cx="1425.0" cy="397.1" r="4.959" fill="#f4c06a"/><circle cx="1394.7" cy="391.5" r="4.959" fill="#f4c06a"/><circle cx="1377.3" cy="366.2" r="4.959" fill="#f4c06a"/><circle cx="1382.9" cy="335.9" r="4.959" fill="#f4c06a"/><circle cx="1408.2" cy="318.5" r="4.959" fill="#f4c06a"/><circle cx="1438.5" cy="324.1" r="4.959" fill="#f4c06a"/>
    <text class="tiny" x="1478.8" y="361.8">C5</text>
  </g><g>
    <circle cx="1362.6" cy="563" r="52.199999999999996" fill="url(#chipRed)" stroke="#e2aa4e" stroke-width="3"/>
    <circle cx="1362.6" cy="563" r="30.275999999999996" fill="none" stroke="#f1bb61" stroke-width="2"/>
    <circle cx="1362.6" cy="563" r="13.049999999999999" fill="rgba(255,210,120,.25)" stroke="#f1bb61" stroke-width="2"/>
    <circle cx="1401.9" cy="554.6" r="4.959" fill="#f4c06a"/><circle cx="1396.3" cy="584.9" r="4.959" fill="#f4c06a"/><circle cx="1371.0" cy="602.3" r="4.959" fill="#f4c06a"/><circle cx="1340.7" cy="596.7" r="4.959" fill="#f4c06a"/><circle cx="1323.3" cy="571.4" r="4.959" fill="#f4c06a"/><circle cx="1328.9" cy="541.1" r="4.959" fill="#f4c06a"/><circle cx="1354.2" cy="523.7" r="4.959" fill="#f4c06a"/><circle cx="1384.5" cy="529.3" r="4.959" fill="#f4c06a"/>
    <text class="tiny" x="1424.8" y="567">C6</text>
  </g><g>
    <circle cx="1416.6" cy="800.6" r="52.199999999999996" fill="url(#chipBlack)" stroke="#e2aa4e" stroke-width="3"/>
    <circle cx="1416.6" cy="800.6" r="30.275999999999996" fill="none" stroke="#f1bb61" stroke-width="2"/>
    <circle cx="1416.6" cy="800.6" r="13.049999999999999" fill="rgba(255,210,120,.25)" stroke="#f1bb61" stroke-width="2"/>
    <circle cx="1455.9" cy="792.2" r="4.959" fill="#f4c06a"/><circle cx="1450.3" cy="822.5" r="4.959" fill="#f4c06a"/><circle cx="1425.0" cy="839.9" r="4.959" fill="#f4c06a"/><circle cx="1394.7" cy="834.3" r="4.959" fill="#f4c06a"/><circle cx="1377.3" cy="809.0" r="4.959" fill="#f4c06a"/><circle cx="1382.9" cy="778.7" r="4.959" fill="#f4c06a"/><circle cx="1408.2" cy="761.3" r="4.959" fill="#f4c06a"/><circle cx="1438.5" cy="766.9" r="4.959" fill="#f4c06a"/>
    <text class="tiny" x="1478.8" y="804.6">C7</text>
  </g><g>
    <circle cx="1405.8" cy="1067" r="52.199999999999996" fill="url(#chipRed)" stroke="#e2aa4e" stroke-width="3"/>
    <circle cx="1405.8" cy="1067" r="30.275999999999996" fill="none" stroke="#f1bb61" stroke-width="2"/>
    <circle cx="1405.8" cy="1067" r="13.049999999999999" fill="rgba(255,210,120,.25)" stroke="#f1bb61" stroke-width="2"/>
    <circle cx="1445.1" cy="1058.6" r="4.959" fill="#f4c06a"/><circle cx="1439.5" cy="1088.9" r="4.959" fill="#f4c06a"/><circle cx="1414.2" cy="1106.3" r="4.959" fill="#f4c06a"/><circle cx="1383.9" cy="1100.7" r="4.959" fill="#f4c06a"/><circle cx="1366.5" cy="1075.4" r="4.959" fill="#f4c06a"/><circle cx="1372.1" cy="1045.1" r="4.959" fill="#f4c06a"/><circle cx="1397.4" cy="1027.7" r="4.959" fill="#f4c06a"/><circle cx="1427.7" cy="1033.3" r="4.959" fill="#f4c06a"/>
    <text class="tiny" x="1468" y="1071">C8</text>
  </g>
      <g>
    <circle cx="394.2" cy="465.8" r="43" fill="rgba(232,168,63,.18)" stroke="#d79b38" stroke-width="2"/>
    <circle cx="394.2" cy="465.8" r="25" fill="none" stroke="#d79b38" stroke-width="1.4"/>
    <text class="tiny" x="444.2" y="469.8">T1</text>
  </g><g>
    <circle cx="437.4" cy="678.1999999999999" r="43" fill="rgba(232,168,63,.18)" stroke="#d79b38" stroke-width="2"/>
    <circle cx="437.4" cy="678.1999999999999" r="25" fill="none" stroke="#d79b38" stroke-width="1.4"/>
    <text class="tiny" x="487.4" y="682.1999999999999">T2</text>
  </g><g>
    <circle cx="401.4" cy="933.8" r="43" fill="rgba(232,168,63,.18)" stroke="#d79b38" stroke-width="2"/>
    <circle cx="401.4" cy="933.8" r="25" fill="none" stroke="#d79b38" stroke-width="1.4"/>
    <text class="tiny" x="451.4" y="937.8">T3</text>
  </g><g>
    <circle cx="351" cy="1182.2" r="43" fill="rgba(232,168,63,.18)" stroke="#d79b38" stroke-width="2"/>
    <circle cx="351" cy="1182.2" r="25" fill="none" stroke="#d79b38" stroke-width="1.4"/>
    <text class="tiny" x="401" y="1186.2">T4</text>
  </g><g>
    <circle cx="1409.3999999999999" cy="465.8" r="43" fill="rgba(232,168,63,.18)" stroke="#d79b38" stroke-width="2"/>
    <circle cx="1409.3999999999999" cy="465.8" r="25" fill="none" stroke="#d79b38" stroke-width="1.4"/>
    <text class="tiny" x="1459.3999999999999" y="469.8">T5</text>
  </g><g>
    <circle cx="1366.2" cy="678.1999999999999" r="43" fill="rgba(232,168,63,.18)" stroke="#d79b38" stroke-width="2"/>
    <circle cx="1366.2" cy="678.1999999999999" r="25" fill="none" stroke="#d79b38" stroke-width="1.4"/>
    <text class="tiny" x="1416.2" y="682.1999999999999">T6</text>
  </g><g>
    <circle cx="1402.2" cy="933.8" r="43" fill="rgba(232,168,63,.18)" stroke="#d79b38" stroke-width="2"/>
    <circle cx="1402.2" cy="933.8" r="25" fill="none" stroke="#d79b38" stroke-width="1.4"/>
    <text class="tiny" x="1452.2" y="937.8">T7</text>
  </g><g>
    <circle cx="1452.6" cy="1182.2" r="43" fill="rgba(232,168,63,.18)" stroke="#d79b38" stroke-width="2"/>
    <circle cx="1452.6" cy="1182.2" r="25" fill="none" stroke="#d79b38" stroke-width="1.4"/>
    <text class="tiny" x="1502.6" y="1186.2">T8</text>
  </g><g>
    <circle cx="581.4" cy="1016.5999999999999" r="43" fill="rgba(232,168,63,.18)" stroke="#d79b38" stroke-width="2"/>
    <circle cx="581.4" cy="1016.5999999999999" r="25" fill="none" stroke="#d79b38" stroke-width="1.4"/>
    <text class="tiny" x="631.4" y="1020.5999999999999">T9</text>
  </g><g>
    <circle cx="1222.2" cy="1016.5999999999999" r="43" fill="rgba(232,168,63,.18)" stroke="#d79b38" stroke-width="2"/>
    <circle cx="1222.2" cy="1016.5999999999999" r="25" fill="none" stroke="#d79b38" stroke-width="1.4"/>
    <text class="tiny" x="1272.2" y="1020.5999999999999">T10</text>
  </g><g>
    <circle cx="682.1999999999999" cy="509" r="43" fill="rgba(232,168,63,.18)" stroke="#d79b38" stroke-width="2"/>
    <circle cx="682.1999999999999" cy="509" r="25" fill="none" stroke="#d79b38" stroke-width="1.4"/>
    <text class="tiny" x="732.1999999999999" y="513">T11</text>
  </g><g>
    <circle cx="1121.4" cy="509" r="43" fill="rgba(232,168,63,.18)" stroke="#d79b38" stroke-width="2"/>
    <circle cx="1121.4" cy="509" r="25" fill="none" stroke="#d79b38" stroke-width="1.4"/>
    <text class="tiny" x="1171.4" y="513">T12</text>
  </g>
      <g transform="translate(667.8 354.2) rotate(-22)">
    <rect class="card" x="-130" y="-195" width="260" height="390" rx="16"/>
    <rect class="cardLine" x="-108" y="-170" width="216" height="340" rx="10"/>
    <text x="-104" y="-135" font-family="Georgia,serif" font-size="42" fill="#17100a">10</text>
    <path fill="#17100a" d="M0,-52 C-62,12 -24,78 0,66 C24,78 62,12 0,-52 Z M0,66 L-24,122 L24,122 Z"/>
    <text x="80" y="152" font-family="Georgia,serif" font-size="36" fill="#17100a" transform="rotate(180 80 152)">10</text>
  </g><g transform="translate(736.1999999999999 332.6) rotate(-14)">
    <rect class="card" x="-130" y="-195" width="260" height="390" rx="16"/>
    <rect class="cardLine" x="-108" y="-170" width="216" height="340" rx="10"/>
    <text x="-104" y="-135" font-family="Georgia,serif" font-size="42" fill="#17100a">J</text>
    <path fill="#17100a" d="M0,-52 C-62,12 -24,78 0,66 C24,78 62,12 0,-52 Z M0,66 L-24,122 L24,122 Z"/>
    <text x="80" y="152" font-family="Georgia,serif" font-size="36" fill="#17100a" transform="rotate(180 80 152)">J</text>
  </g><g transform="translate(804.6 314.6) rotate(-7)">
    <rect class="card" x="-130" y="-195" width="260" height="390" rx="16"/>
    <rect class="cardLine" x="-108" y="-170" width="216" height="340" rx="10"/>
    <text x="-104" y="-135" font-family="Georgia,serif" font-size="42" fill="#17100a">J</text>
    <path fill="#17100a" d="M0,-52 C-62,12 -24,78 0,66 C24,78 62,12 0,-52 Z M0,66 L-24,122 L24,122 Z"/>
    <text x="80" y="152" font-family="Georgia,serif" font-size="36" fill="#17100a" transform="rotate(180 80 152)">J</text>
  </g><g transform="translate(876.6 300.2) rotate(0)">
    <rect class="card" x="-130" y="-195" width="260" height="390" rx="16"/>
    <rect class="cardLine" x="-108" y="-170" width="216" height="340" rx="10"/>
    <text x="-104" y="-135" font-family="Georgia,serif" font-size="42" fill="#17100a">Q</text>
    <path fill="#17100a" d="M0,-52 C-62,12 -24,78 0,66 C24,78 62,12 0,-52 Z M0,66 L-24,122 L24,122 Z"/>
    <text x="80" y="152" font-family="Georgia,serif" font-size="36" fill="#17100a" transform="rotate(180 80 152)">Q</text>
  </g><g transform="translate(952.1999999999999 311) rotate(8)">
    <rect class="card" x="-130" y="-195" width="260" height="390" rx="16"/>
    <rect class="cardLine" x="-108" y="-170" width="216" height="340" rx="10"/>
    <text x="-104" y="-135" font-family="Georgia,serif" font-size="42" fill="#17100a">K</text>
    <path fill="#17100a" d="M0,-52 C-62,12 -24,78 0,66 C24,78 62,12 0,-52 Z M0,66 L-24,122 L24,122 Z"/>
    <text x="80" y="152" font-family="Georgia,serif" font-size="36" fill="#17100a" transform="rotate(180 80 152)">K</text>
  </g><g transform="translate(1031.4 336.2) rotate(18)">
    <rect class="card" x="-130" y="-195" width="260" height="390" rx="16"/>
    <rect class="cardLine" x="-108" y="-170" width="216" height="340" rx="10"/>
    <text x="-104" y="-135" font-family="Georgia,serif" font-size="42" fill="#17100a">A</text>
    <path fill="#17100a" d="M0,-52 C-62,12 -24,78 0,66 C24,78 62,12 0,-52 Z M0,66 L-24,122 L24,122 Z"/>
    <text x="80" y="152" font-family="Georgia,serif" font-size="36" fill="#17100a" transform="rotate(180 80 152)">A</text>
  </g>
      <line class="dim" x1="135" y1="1454.36" x2="1668.6" y2="1454.36"/><text class="small" x="840.6" y="1490.36">2130 мм</text>
      <line class="dim" x1="84.6" y1="95" x2="84.6" y2="1427"/><text class="small" x="30.60000000000001" y="764.6">1850 мм</text>
      <line class="dim" x1="462.59999999999997" y1="354.2" x2="1341" y2="354.2"/><text class="tiny" x="811.8" y="339.79999999999995">центральное зеркало 1220 мм</text>
      <text class="small" x="473.4" y="1146.2">центральная зона отражения / infinity mirror</text>
      <text class="small" x="631.8" y="620.6">реальный MDF-веер карт 6 шт.</text>
      <text class="small" x="192.6" y="1405.3999999999999">Реальные объекты считаются один раз. Глубина создается зеркалами.</text>
    </g>
<rect x="1440" y="1440" width="330" height="82" fill="none" stroke="#d79b38"/>
<text class="small" x="1458" y="1468">Casino mirror composition</text>
<text class="tiny" x="1458" y="1494">Габарит: 2130 x 1850 x 235 мм</text>
<text class="tiny" x="1458" y="1516">Чистая версия по референсу</text>
</svg>