0
SECTION
2
HEADER
9
$ACADVER
1
AC1027
0
ENDSEC
0
SECTION
2
TABLES
0
TABLE
2
LAYER
0
LAYER
2
CUT
70
0
62
1
6
CONTINUOUS
0
LAYER
2
ENGRAVE
70
0
62
5
6
CONTINUOUS
0
LAYER
2
TEXT
70
0
62
7
6
CONTINUOUS
0
ENDTAB
0
ENDSEC
0
SECTION
2
ENTITIES
0
LINE
8
CUT
10
0
20
0
30
0
11
260
21
0
31
0
0
LINE
8
CUT
10
260
20
0
30
0
11
260
21
390
31
0
0
LINE
8
CUT
10
260
20
390
30
0
11
0
21
390
31
0
0
LINE
8
CUT
10
0
20
390
30
0
11
0
21
0
31
0
0
LINE
8
ENGRAVE
10
18
20
18
30
0
11
242
21
18
31
0
0
LINE
8
ENGRAVE
10
242
20
18
30
0
11
242
21
372
31
0
0
LINE
8
ENGRAVE
10
242
20
372
30
0
11
18
21
372
31
0
0
LINE
8
ENGRAVE
10
18
20
372
30
0
11
18
21
18
31
0
0
LINE
8
CUT
10
310
20
0
30
0
11
570
21
0
31
0
0
LINE
8
CUT
10
570
20
0
30
0
11
570
21
390
31
0
0
LINE
8
CUT
10
570
20
390
30
0
11
310
21
390
31
0
0
LINE
8
CUT
10
310
20
390
30
0
11
310
21
0
31
0
0
LINE
8
ENGRAVE
10
328
20
18
30
0
11
552
21
18
31
0
0
LINE
8
ENGRAVE
10
552
20
18
30
0
11
552
21
372
31
0
0
LINE
8
ENGRAVE
10
552
20
372
30
0
11
328
21
372
31
0
0
LINE
8
ENGRAVE
10
328
20
372
30
0
11
328
21
18
31
0
0
LINE
8
CUT
10
620
20
0
30
0
11
880
21
0
31
0
0
LINE
8
CUT
10
880
20
0
30
0
11
880
21
390
31
0
0
LINE
8
CUT
10
880
20
390
30
0
11
620
21
390
31
0
0
LINE
8
CUT
10
620
20
390
30
0
11
620
21
0
31
0
0
LINE
8
ENGRAVE
10
638
20
18
30
0
11
862
21
18
31
0
0
LINE
8
ENGRAVE
10
862
20
18
30
0
11
862
21
372
31
0
0
LINE
8
ENGRAVE
10
862
20
372
30
0
11
638
21
372
31
0
0
LINE
8
ENGRAVE
10
638
20
372
30
0
11
638
21
18
31
0
0
LINE
8
CUT
10
930
20
0
30
0
11
1190
21
0
31
0
0
LINE
8
CUT
10
1190
20
0
30
0
11
1190
21
390
31
0
0
LINE
8
CUT
10
1190
20
390
30
0
11
930
21
390
31
0
0
LINE
8
CUT
10
930
20
390
30
0
11
930
21
0
31
0
0
LINE
8
ENGRAVE
10
948
20
18
30
0
11
1172
21
18
31
0
0
LINE
8
ENGRAVE
10
1172
20
18
30
0
11
1172
21
372
31
0
0
LINE
8
ENGRAVE
10
1172
20
372
30
0
11
948
21
372
31
0
0
LINE
8
ENGRAVE
10
948
20
372
30
0
11
948
21
18
31
0
0
LINE
8
CUT
10
1240
20
0
30
0
11
1500
21
0
31
0
0
LINE
8
CUT
10
1500
20
0
30
0
11
1500
21
390
31
0
0
LINE
8
CUT
10
1500
20
390
30
0
11
1240
21
390
31
0
0
LINE
8
CUT
10
1240
20
390
30
0
11
1240
21
0
31
0
0
LINE
8
ENGRAVE
10
1258
20
18
30
0
11
1482
21
18
31
0
0
LINE
8
ENGRAVE
10
1482
20
18
30
0
11
1482
21
372
31
0
0
LINE
8
ENGRAVE
10
1482
20
372
30
0
11
1258
21
372
31
0
0
LINE
8
ENGRAVE
10
1258
20
372
30
0
11
1258
21
18
31
0
0
LINE
8
CUT
10
1550
20
0
30
0
11
1810
21
0
31
0
0
LINE
8
CUT
10
1810
20
0
30
0
11
1810
21
390
31
0
0
LINE
8
CUT
10
1810
20
390
30
0
11
1550
21
390
31
0
0
LINE
8
CUT
10
1550
20
390
30
0
11
1550
21
0
31
0
0
LINE
8
ENGRAVE
10
1568
20
18
30
0
11
1792
21
18
31
0
0
LINE
8
ENGRAVE
10
1792
20
18
30
0
11
1792
21
372
31
0
0
LINE
8
ENGRAVE
10
1792
20
372
30
0
11
1568
21
372
31
0
0
LINE
8
ENGRAVE
10
1568
20
372
30
0
11
1568
21
18
31
0
0
ENDSEC
0
EOF
