<?xml version="1.0" encoding="UTF-8"?>
<svg xmlns="http://www.w3.org/2000/svg" width="1920mm" height="760mm" viewBox="0 0 1920 760">
<defs>
  <marker id="arrow" markerWidth="8" markerHeight="8" refX="4" refY="4" orient="auto">
    <path d="M0,0 L8,4 L0,8 Z" fill="#555"/>
  </marker>
  <radialGradient id="chipRed" cx="50%" cy="45%" r="60%">
    <stop offset="0%" stop-color="#ffcc79"/>
    <stop offset="40%" stop-color="#aa1610"/>
    <stop offset="100%" stop-color="#260604"/>
  </radialGradient>
  <radialGradient id="chipBlack" cx="50%" cy="45%" r="60%">
    <stop offset="0%" stop-color="#ffd890"/>
    <stop offset="42%" stop-color="#111"/>
    <stop offset="100%" stop-color="#040403"/>
  </radialGradient>
  <filter id="glow"><feGaussianBlur stdDeviation="4" result="b"/><feMerge><feMergeNode in="b"/><feMergeNode in="SourceGraphic"/></feMerge></filter>
</defs>
<style>
  .bg{fill:#ffffff}
  .frame{fill:none;stroke:#d58a25;stroke-width:5}
  .gold{fill:none;stroke:#d79b38;stroke-width:3}
  .thinGold{fill:none;stroke:#d79b38;stroke-width:1.4}
  .dim{fill:none;stroke:#555;stroke-width:1.2;marker-start:url(#arrow);marker-end:url(#arrow)}
  .guide{fill:none;stroke:#999;stroke-width:.8;stroke-dasharray:12 8}
  .label{font-family:Arial,sans-serif;font-size:24px;fill:#111}
  .small{font-family:Arial,sans-serif;font-size:16px;fill:#111}
  .tiny{font-family:Arial,sans-serif;font-size:12px;fill:#111}
  .card{fill:#c69043;stroke:#2b1708;stroke-width:2}
  .cardLine{fill:none;stroke:#2b1708;stroke-width:2}
  .mirror{fill:rgba(110,180,220,.15);stroke:#53a9df;stroke-width:2}
  .mdf{fill:rgba(205,143,58,.16);stroke:#8f5b14;stroke-width:2}
  .cut{fill:none;stroke:#111;stroke-width:1.4}
  .engrave{fill:none;stroke:#1266a8;stroke-width:1;stroke-dasharray:9 6}
  text{letter-spacing:0}
</style>
<rect class="bg" x="0" y="0" width="1920" height="760"/>
<text class="label" x="32" y="42">04 MDF фишки, жетоны, масти</text>
<g><circle class="cut" cx="100" cy="130" r="72.5"/><circle class="engrave" cx="100" cy="130" r="43"/><circle class="engrave" cx="100" cy="130" r="22"/><text class="tiny" x="75" y="135">D145</text></g><g><circle class="cut" cx="290" cy="130" r="72.5"/><circle class="engrave" cx="290" cy="130" r="43"/><circle class="engrave" cx="290" cy="130" r="22"/><text class="tiny" x="265" y="135">D145</text></g><g><circle class="cut" cx="480" cy="130" r="72.5"/><circle class="engrave" cx="480" cy="130" r="43"/><circle class="engrave" cx="480" cy="130" r="22"/><text class="tiny" x="455" y="135">D145</text></g><g><circle class="cut" cx="670" cy="130" r="72.5"/><circle class="engrave" cx="670" cy="130" r="43"/><circle class="engrave" cx="670" cy="130" r="22"/><text class="tiny" x="645" y="135">D145</text></g><g><circle class="cut" cx="860" cy="130" r="72.5"/><circle class="engrave" cx="860" cy="130" r="43"/><circle class="engrave" cx="860" cy="130" r="22"/><text class="tiny" x="835" y="135">D145</text></g><g><circle class="cut" cx="100" cy="320" r="72.5"/><circle class="engrave" cx="100" cy="320" r="43"/><circle class="engrave" cx="100" cy="320" r="22"/><text class="tiny" x="75" y="325">D145</text></g><g><circle class="cut" cx="290" cy="320" r="72.5"/><circle class="engrave" cx="290" cy="320" r="43"/><circle class="engrave" cx="290" cy="320" r="22"/><text class="tiny" x="265" y="325">D145</text></g><g><circle class="cut" cx="480" cy="320" r="72.5"/><circle class="engrave" cx="480" cy="320" r="43"/><circle class="engrave" cx="480" cy="320" r="22"/><text class="tiny" x="455" y="325">D145</text></g><g><circle class="cut" cx="670" cy="320" r="72.5"/><circle class="engrave" cx="670" cy="320" r="43"/><circle class="engrave" cx="670" cy="320" r="22"/><text class="tiny" x="645" y="325">D145</text></g><g><circle class="cut" cx="860" cy="320" r="72.5"/><circle class="engrave" cx="860" cy="320" r="43"/><circle class="engrave" cx="860" cy="320" r="22"/><text class="tiny" x="835" y="325">D145</text></g><g><circle class="cut" cx="80" cy="540" r="42.5"/><circle class="engrave" cx="80" cy="540" r="24"/><text class="tiny" x="60" y="545">D85</text></g><g><circle class="cut" cx="210" cy="540" r="42.5"/><circle class="engrave" cx="210" cy="540" r="24"/><text class="tiny" x="190" y="545">D85</text></g><g><circle class="cut" cx="340" cy="540" r="42.5"/><circle class="engrave" cx="340" cy="540" r="24"/><text class="tiny" x="320" y="545">D85</text></g><g><circle class="cut" cx="470" cy="540" r="42.5"/><circle class="engrave" cx="470" cy="540" r="24"/><text class="tiny" x="450" y="545">D85</text></g><g><circle class="cut" cx="600" cy="540" r="42.5"/><circle class="engrave" cx="600" cy="540" r="24"/><text class="tiny" x="580" y="545">D85</text></g><g><circle class="cut" cx="730" cy="540" r="42.5"/><circle class="engrave" cx="730" cy="540" r="24"/><text class="tiny" x="710" y="545">D85</text></g><g><circle class="cut" cx="860" cy="540" r="42.5"/><circle class="engrave" cx="860" cy="540" r="24"/><text class="tiny" x="840" y="545">D85</text></g><g><circle class="cut" cx="80" cy="650" r="42.5"/><circle class="engrave" cx="80" cy="650" r="24"/><text class="tiny" x="60" y="655">D85</text></g><g><circle class="cut" cx="210" cy="650" r="42.5"/><circle class="engrave" cx="210" cy="650" r="24"/><text class="tiny" x="190" y="655">D85</text></g><g><circle class="cut" cx="340" cy="650" r="42.5"/><circle class="engrave" cx="340" cy="650" r="24"/><text class="tiny" x="320" y="655">D85</text></g><g><circle class="cut" cx="470" cy="650" r="42.5"/><circle class="engrave" cx="470" cy="650" r="24"/><text class="tiny" x="450" y="655">D85</text></g><g><circle class="cut" cx="600" cy="650" r="42.5"/><circle class="engrave" cx="600" cy="650" r="24"/><text class="tiny" x="580" y="655">D85</text></g><g><circle class="cut" cx="730" cy="650" r="42.5"/><circle class="engrave" cx="730" cy="650" r="24"/><text class="tiny" x="710" y="655">D85</text></g><g><circle class="cut" cx="860" cy="650" r="42.5"/><circle class="engrave" cx="860" cy="650" r="24"/><text class="tiny" x="840" y="655">D85</text></g><path d="M0,-28 C-34,6 -13,36 0,27 C13,36 34,6 0,-28 Z M0,27 L-13,54 L13,54 Z" transform="translate(1050 140) scale(0.75)" fill="none" stroke="#d79b38" stroke-width="2.6666666666666665"/><path d="M0,-28 C-34,6 -13,36 0,27 C13,36 34,6 0,-28 Z M0,27 L-13,54 L13,54 Z" transform="translate(1132 140) scale(0.75)" fill="none" stroke="#d79b38" stroke-width="2.6666666666666665"/><path d="M0,-28 C-34,6 -13,36 0,27 C13,36 34,6 0,-28 Z M0,27 L-13,54 L13,54 Z" transform="translate(1214 140) scale(0.75)" fill="none" stroke="#d79b38" stroke-width="2.6666666666666665"/><path d="M0,-28 C-34,6 -13,36 0,27 C13,36 34,6 0,-28 Z M0,27 L-13,54 L13,54 Z" transform="translate(1296 140) scale(0.75)" fill="none" stroke="#d79b38" stroke-width="2.6666666666666665"/><path d="M0,-28 C-34,6 -13,36 0,27 C13,36 34,6 0,-28 Z M0,27 L-13,54 L13,54 Z" transform="translate(1378 140) scale(0.75)" fill="none" stroke="#d79b38" stroke-width="2.6666666666666665"/><path d="M0,-28 C-34,6 -13,36 0,27 C13,36 34,6 0,-28 Z M0,27 L-13,54 L13,54 Z" transform="translate(1460 140) scale(0.75)" fill="none" stroke="#d79b38" stroke-width="2.6666666666666665"/><path d="M0,-28 C-34,6 -13,36 0,27 C13,36 34,6 0,-28 Z M0,27 L-13,54 L13,54 Z" transform="translate(1542 140) scale(0.75)" fill="none" stroke="#d79b38" stroke-width="2.6666666666666665"/><path d="M0,-28 C-34,6 -13,36 0,27 C13,36 34,6 0,-28 Z M0,27 L-13,54 L13,54 Z" transform="translate(1624 140) scale(0.75)" fill="none" stroke="#d79b38" stroke-width="2.6666666666666665"/><path d="M0,-28 C-34,6 -13,36 0,27 C13,36 34,6 0,-28 Z M0,27 L-13,54 L13,54 Z" transform="translate(1706 140) scale(0.75)" fill="none" stroke="#d79b38" stroke-width="2.6666666666666665"/><path d="M0,-28 C-34,6 -13,36 0,27 C13,36 34,6 0,-28 Z M0,27 L-13,54 L13,54 Z" transform="translate(1788 140) scale(0.75)" fill="none" stroke="#d79b38" stroke-width="2.6666666666666665"/><path d="M-16,-5 A16,16 0 1 1 -1,-22 A16,16 0 1 1 16,-5 A16,16 0 1 1 8,20 L17,50 L-17,50 L-8,20 A16,16 0 1 1 -16,-5 Z" transform="translate(1050 240) scale(0.75)" fill="none" stroke="#d79b38" stroke-width="2.6666666666666665"/><path d="M-16,-5 A16,16 0 1 1 -1,-22 A16,16 0 1 1 16,-5 A16,16 0 1 1 8,20 L17,50 L-17,50 L-8,20 A16,16 0 1 1 -16,-5 Z" transform="translate(1132 240) scale(0.75)" fill="none" stroke="#d79b38" stroke-width="2.6666666666666665"/><path d="M-16,-5 A16,16 0 1 1 -1,-22 A16,16 0 1 1 16,-5 A16,16 0 1 1 8,20 L17,50 L-17,50 L-8,20 A16,16 0 1 1 -16,-5 Z" transform="translate(1214 240) scale(0.75)" fill="none" stroke="#d79b38" stroke-width="2.6666666666666665"/><path d="M-16,-5 A16,16 0 1 1 -1,-22 A16,16 0 1 1 16,-5 A16,16 0 1 1 8,20 L17,50 L-17,50 L-8,20 A16,16 0 1 1 -16,-5 Z" transform="translate(1296 240) scale(0.75)" fill="none" stroke="#d79b38" stroke-width="2.6666666666666665"/><path d="M-16,-5 A16,16 0 1 1 -1,-22 A16,16 0 1 1 16,-5 A16,16 0 1 1 8,20 L17,50 L-17,50 L-8,20 A16,16 0 1 1 -16,-5 Z" transform="translate(1378 240) scale(0.75)" fill="none" stroke="#d79b38" stroke-width="2.6666666666666665"/><path d="M-16,-5 A16,16 0 1 1 -1,-22 A16,16 0 1 1 16,-5 A16,16 0 1 1 8,20 L17,50 L-17,50 L-8,20 A16,16 0 1 1 -16,-5 Z" transform="translate(1460 240) scale(0.75)" fill="none" stroke="#d79b38" stroke-width="2.6666666666666665"/><path d="M-16,-5 A16,16 0 1 1 -1,-22 A16,16 0 1 1 16,-5 A16,16 0 1 1 8,20 L17,50 L-17,50 L-8,20 A16,16 0 1 1 -16,-5 Z" transform="translate(1542 240) scale(0.75)" fill="none" stroke="#d79b38" stroke-width="2.6666666666666665"/><path d="M-16,-5 A16,16 0 1 1 -1,-22 A16,16 0 1 1 16,-5 A16,16 0 1 1 8,20 L17,50 L-17,50 L-8,20 A16,16 0 1 1 -16,-5 Z" transform="translate(1624 240) scale(0.75)" fill="none" stroke="#d79b38" stroke-width="2.6666666666666665"/><path d="M-16,-5 A16,16 0 1 1 -1,-22 A16,16 0 1 1 16,-5 A16,16 0 1 1 8,20 L17,50 L-17,50 L-8,20 A16,16 0 1 1 -16,-5 Z" transform="translate(1706 240) scale(0.75)" fill="none" stroke="#d79b38" stroke-width="2.6666666666666665"/><path d="M-16,-5 A16,16 0 1 1 -1,-22 A16,16 0 1 1 16,-5 A16,16 0 1 1 8,20 L17,50 L-17,50 L-8,20 A16,16 0 1 1 -16,-5 Z" transform="translate(1788 240) scale(0.75)" fill="none" stroke="#d79b38" stroke-width="2.6666666666666665"/><path d="M0,-34 L28,0 L0,34 L-28,0 Z" transform="translate(1050 340) scale(0.75)" fill="none" stroke="#d79b38" stroke-width="2.6666666666666665"/><path d="M0,-34 L28,0 L0,34 L-28,0 Z" transform="translate(1132 340) scale(0.75)" fill="none" stroke="#d79b38" stroke-width="2.6666666666666665"/><path d="M0,-34 L28,0 L0,34 L-28,0 Z" transform="translate(1214 340) scale(0.75)" fill="none" stroke="#d79b38" stroke-width="2.6666666666666665"/><path d="M0,-34 L28,0 L0,34 L-28,0 Z" transform="translate(1296 340) scale(0.75)" fill="none" stroke="#d79b38" stroke-width="2.6666666666666665"/><path d="M0,-34 L28,0 L0,34 L-28,0 Z" transform="translate(1378 340) scale(0.75)" fill="none" stroke="#d79b38" stroke-width="2.6666666666666665"/><path d="M0,-34 L28,0 L0,34 L-28,0 Z" transform="translate(1460 340) scale(0.75)" fill="none" stroke="#d79b38" stroke-width="2.6666666666666665"/><path d="M0,-34 L28,0 L0,34 L-28,0 Z" transform="translate(1542 340) scale(0.75)" fill="none" stroke="#d79b38" stroke-width="2.6666666666666665"/><path d="M0,-34 L28,0 L0,34 L-28,0 Z" transform="translate(1624 340) scale(0.75)" fill="none" stroke="#d79b38" stroke-width="2.6666666666666665"/><path d="M0,31 C-38,-4 -29,-34 -7,-27 C-2,-25 0,-19 0,-19 C0,-19 2,-25 7,-27 C29,-34 38,-4 0,31 Z" transform="translate(1050 440) scale(0.75)" fill="none" stroke="#d79b38" stroke-width="2.6666666666666665"/><path d="M0,31 C-38,-4 -29,-34 -7,-27 C-2,-25 0,-19 0,-19 C0,-19 2,-25 7,-27 C29,-34 38,-4 0,31 Z" transform="translate(1132 440) scale(0.75)" fill="none" stroke="#d79b38" stroke-width="2.6666666666666665"/><path d="M0,31 C-38,-4 -29,-34 -7,-27 C-2,-25 0,-19 0,-19 C0,-19 2,-25 7,-27 C29,-34 38,-4 0,31 Z" transform="translate(1214 440) scale(0.75)" fill="none" stroke="#d79b38" stroke-width="2.6666666666666665"/><path d="M0,31 C-38,-4 -29,-34 -7,-27 C-2,-25 0,-19 0,-19 C0,-19 2,-25 7,-27 C29,-34 38,-4 0,31 Z" transform="translate(1296 440) scale(0.75)" fill="none" stroke="#d79b38" stroke-width="2.6666666666666665"/><path d="M0,31 C-38,-4 -29,-34 -7,-27 C-2,-25 0,-19 0,-19 C0,-19 2,-25 7,-27 C29,-34 38,-4 0,31 Z" transform="translate(1378 440) scale(0.75)" fill="none" stroke="#d79b38" stroke-width="2.6666666666666665"/><path d="M0,31 C-38,-4 -29,-34 -7,-27 C-2,-25 0,-19 0,-19 C0,-19 2,-25 7,-27 C29,-34 38,-4 0,31 Z" transform="translate(1460 440) scale(0.75)" fill="none" stroke="#d79b38" stroke-width="2.6666666666666665"/><path d="M0,31 C-38,-4 -29,-34 -7,-27 C-2,-25 0,-19 0,-19 C0,-19 2,-25 7,-27 C29,-34 38,-4 0,31 Z" transform="translate(1542 440) scale(0.75)" fill="none" stroke="#d79b38" stroke-width="2.6666666666666665"/><path d="M0,31 C-38,-4 -29,-34 -7,-27 C-2,-25 0,-19 0,-19 C0,-19 2,-25 7,-27 C29,-34 38,-4 0,31 Z" transform="translate(1624 440) scale(0.75)" fill="none" stroke="#d79b38" stroke-width="2.6666666666666665"/>
<rect x="1560" y="650" width="330" height="82" fill="none" stroke="#111"/>
<text class="small" x="1578" y="678">Casino mirror composition</text>
<text class="tiny" x="1578" y="704">Габарит: 2130 x 1850 x 235 мм</text>
<text class="tiny" x="1578" y="726">Чистая версия по референсу</text>
</svg>