0
SECTION
2
HEADER
9
$ACADVER
1
AC1027
0
ENDSEC
0
SECTION
2
TABLES
0
TABLE
2
LAYER
0
LAYER
2
CUT
70
0
62
1
6
CONTINUOUS
0
LAYER
2
ENGRAVE
70
0
62
5
6
CONTINUOUS
0
LAYER
2
TEXT
70
0
62
7
6
CONTINUOUS
0
ENDTAB
0
ENDSEC
0
SECTION
2
ENTITIES
0
CIRCLE
8
CUT
10
90
20
90
30
0
40
72.5
0
CIRCLE
8
ENGRAVE
10
90
20
90
30
0
40
43
0
CIRCLE
8
CUT
10
275
20
90
30
0
40
72.5
0
CIRCLE
8
ENGRAVE
10
275
20
90
30
0
40
43
0
CIRCLE
8
CUT
10
460
20
90
30
0
40
72.5
0
CIRCLE
8
ENGRAVE
10
460
20
90
30
0
40
43
0
CIRCLE
8
CUT
10
645
20
90
30
0
40
72.5
0
CIRCLE
8
ENGRAVE
10
645
20
90
30
0
40
43
0
CIRCLE
8
CUT
10
830
20
90
30
0
40
72.5
0
CIRCLE
8
ENGRAVE
10
830
20
90
30
0
40
43
0
CIRCLE
8
CUT
10
90
20
275
30
0
40
72.5
0
CIRCLE
8
ENGRAVE
10
90
20
275
30
0
40
43
0
CIRCLE
8
CUT
10
275
20
275
30
0
40
72.5
0
CIRCLE
8
ENGRAVE
10
275
20
275
30
0
40
43
0
CIRCLE
8
CUT
10
460
20
275
30
0
40
72.5
0
CIRCLE
8
ENGRAVE
10
460
20
275
30
0
40
43
0
CIRCLE
8
CUT
10
645
20
275
30
0
40
72.5
0
CIRCLE
8
ENGRAVE
10
645
20
275
30
0
40
43
0
CIRCLE
8
CUT
10
830
20
275
30
0
40
72.5
0
CIRCLE
8
ENGRAVE
10
830
20
275
30
0
40
43
0
CIRCLE
8
CUT
10
80
20
460
30
0
40
42.5
0
CIRCLE
8
ENGRAVE
10
80
20
460
30
0
40
24
0
CIRCLE
8
CUT
10
210
20
460
30
0
40
42.5
0
CIRCLE
8
ENGRAVE
10
210
20
460
30
0
40
24
0
CIRCLE
8
CUT
10
340
20
460
30
0
40
42.5
0
CIRCLE
8
ENGRAVE
10
340
20
460
30
0
40
24
0
CIRCLE
8
CUT
10
470
20
460
30
0
40
42.5
0
CIRCLE
8
ENGRAVE
10
470
20
460
30
0
40
24
0
CIRCLE
8
CUT
10
600
20
460
30
0
40
42.5
0
CIRCLE
8
ENGRAVE
10
600
20
460
30
0
40
24
0
CIRCLE
8
CUT
10
730
20
460
30
0
40
42.5
0
CIRCLE
8
ENGRAVE
10
730
20
460
30
0
40
24
0
CIRCLE
8
CUT
10
860
20
460
30
0
40
42.5
0
CIRCLE
8
ENGRAVE
10
860
20
460
30
0
40
24
0
CIRCLE
8
CUT
10
80
20
570
30
0
40
42.5
0
CIRCLE
8
ENGRAVE
10
80
20
570
30
0
40
24
0
CIRCLE
8
CUT
10
210
20
570
30
0
40
42.5
0
CIRCLE
8
ENGRAVE
10
210
20
570
30
0
40
24
0
CIRCLE
8
CUT
10
340
20
570
30
0
40
42.5
0
CIRCLE
8
ENGRAVE
10
340
20
570
30
0
40
24
0
CIRCLE
8
CUT
10
470
20
570
30
0
40
42.5
0
CIRCLE
8
ENGRAVE
10
470
20
570
30
0
40
24
0
CIRCLE
8
CUT
10
600
20
570
30
0
40
42.5
0
CIRCLE
8
ENGRAVE
10
600
20
570
30
0
40
24
0
CIRCLE
8
CUT
10
730
20
570
30
0
40
42.5
0
CIRCLE
8
ENGRAVE
10
730
20
570
30
0
40
24
0
CIRCLE
8
CUT
10
860
20
570
30
0
40
42.5
0
CIRCLE
8
ENGRAVE
10
860
20
570
30
0
40
24
0
ENDSEC
0
EOF
